<svg xmlns="http://www.w3.org/2000/svg" width="64" height="64" fill="none" viewBox="0 0 64 64">
  <defs>
    <linearGradient id="outerArc" x1="10" x2="54" y1="49" y2="16" gradientUnits="userSpaceOnUse">
      <stop stop-color="#E2E8F0" />
      <stop offset=".45" stop-color="#F8FAFC" />
      <stop offset="1" stop-color="#94A3B8" />
    </linearGradient>
    <linearGradient id="redArc" x1="38" x2="56" y1="18" y2="49" gradientUnits="userSpaceOnUse">
      <stop stop-color="#FB7185" />
      <stop offset=".55" stop-color="#EF4444" />
      <stop offset="1" stop-color="#B91C1C" />
    </linearGradient>
    <linearGradient id="needle" x1="31" x2="48" y1="50" y2="24" gradientUnits="userSpaceOnUse">
      <stop stop-color="#991B1B" />
      <stop offset=".6" stop-color="#EF4444" />
      <stop offset="1" stop-color="#FFF" />
    </linearGradient>
  </defs>
  <rect width="64" height="64" rx="18" fill="#020617" />
  <path stroke="url(#outerArc)" stroke-linecap="round" stroke-width="4" d="M10 49a22 22 0 0 1 44 0" />
  <path stroke="rgba(15,23,42,.28)" stroke-linecap="round" stroke-width="2.25" d="M15 49a17 17 0 0 1 34 0" />
  <path stroke="url(#redArc)" stroke-linecap="round" stroke-width="4.75" d="M37.5 19.5A21.5 21.5 0 0 1 54 49" />
  <path stroke="#CBD5E1" stroke-linecap="round" stroke-width="2.4" d="m15 43 3-2.5" />
  <path stroke="#CBD5E1" stroke-linecap="round" stroke-width="2.4" d="m22 30 3-2.5" />
  <path stroke="#E2E8F0" stroke-linecap="round" stroke-width="2.4" d="M31 26v-4" />
  <path stroke="#FCA5A5" stroke-linecap="round" stroke-width="2.4" d="m39 29 3-2.5" />
  <path stroke="#EF4444" stroke-linecap="round" stroke-width="2.4" d="m46 36 3-2.5" />
  <path fill="url(#needle)" d="m30.9 47.9 17.5-16-15.2 18.1-2.3-2.1Z" />
  <path stroke="#0F172A" stroke-linecap="round" stroke-width="1.5" d="m32 49 16.4-17.1" />
  <circle cx="32" cy="49" r="5.6" fill="#020617" stroke="#F8FAFC" stroke-width="1.6" />
  <circle cx="32" cy="49" r="2.2" fill="#E2E8F0" />
</svg>
